<svg id="visual" viewBox="0 0 900 90" width="900" height="90" xmlns="http://www.w3.org/2000/svg" xmlns:xlink="http://www.w3.org/1999/xlink" version="1.1"><path d="M0 47L12.5 46.3C25 45.7 50 44.3 75 46.7C100 49 125 55 150 52.7C175 50.3 200 39.7 225 35C250 30.3 275 31.7 300 37C325 42.3 350 51.7 375 49.5C400 47.3 425 33.7 450 27.2C475 20.7 500 21.3 525 21C550 20.7 575 19.3 600 26.7C625 34 650 50 675 57.5C700 65 725 64 750 57.7C775 51.3 800 39.7 825 34.7C850 29.7 875 31.3 887.5 32.2L900 33L900 0L887.5 0C875 0 850 0 825 0C800 0 775 0 750 0C725 0 700 0 675 0C650 0 625 0 600 0C575 0 550 0 525 0C500 0 475 0 450 0C425 0 400 0 375 0C350 0 325 0 300 0C275 0 250 0 225 0C200 0 175 0 150 0C125 0 100 0 75 0C50 0 25 0 12.5 0L0 0Z" fill="#C62368" stroke-linecap="round" stroke-linejoin="miter"></path></svg>