<svg id="visual" viewBox="0 0 900 140" width="900" height="140" xmlns="http://www.w3.org/2000/svg" xmlns:xlink="http://www.w3.org/1999/xlink" version="1.1"><path d="M0 69L16.7 74.2C33.3 79.3 66.7 89.7 100 90.5C133.3 91.3 166.7 82.7 200 75C233.3 67.3 266.7 60.7 300 61C333.3 61.3 366.7 68.7 400 75.3C433.3 82 466.7 88 500 90.7C533.3 93.3 566.7 92.7 600 86.8C633.3 81 666.7 70 700 70.7C733.3 71.3 766.7 83.7 800 85.2C833.3 86.7 866.7 77.3 883.3 72.7L900 68L900 141L883.3 141C866.7 141 833.3 141 800 141C766.7 141 733.3 141 700 141C666.7 141 633.3 141 600 141C566.7 141 533.3 141 500 141C466.7 141 433.3 141 400 141C366.7 141 333.3 141 300 141C266.7 141 233.3 141 200 141C166.7 141 133.3 141 100 141C66.7 141 33.3 141 16.7 141L0 141Z" fill="#c78014" stroke-linecap="round" stroke-linejoin="miter"></path></svg>